HIERARCHY
ROOT Hips
{
    OFFSET   0.000000   0.000000   0.000000
    CHANNELS 6 Xposition Yposition Zposition Zrotation Xrotation Yrotation
    JOINT Chest
    {
        OFFSET   0.000000   8.007230   0.000000
        CHANNELS 3 Zrotation Xrotation Yrotation
        JOINT Chest2
        {
            OFFSET   0.000000  22.077100   0.000000
            CHANNELS 3 Zrotation Xrotation Yrotation
            JOINT Neck
            {
                OFFSET   0.000000  23.254800   0.000000
                CHANNELS 3 Zrotation Xrotation Yrotation
                JOINT Head
                {
                    OFFSET   0.000010  14.370000   1.956600
                    CHANNELS 3 Zrotation Xrotation Yrotation
                    End Site
                    {
                        OFFSET   0.000000  19.566000   0.000000
                    }
                }
            }
            JOINT LeftCollar
            {
                OFFSET   3.911900  19.017000  -0.467062
                CHANNELS 3 Zrotation Xrotation Yrotation
                JOINT LeftShoulder
                {
                    OFFSET  10.383700   0.000000   0.000000
                    CHANNELS 3 Zrotation Xrotation Yrotation
                    JOINT LeftElbow
                    {
                        OFFSET  26.662100   0.001193   0.000835
                        CHANNELS 3 Zrotation Xrotation Yrotation
                        JOINT LeftWrist
                        {
                            OFFSET  28.869000  -0.000058  -0.000075
                            CHANNELS 3 Zrotation Xrotation Yrotation
                            JOINT LeftFinger0
                            {
                                OFFSET   2.044660  -2.323460   3.252850
                                CHANNELS 3 Zrotation Xrotation Yrotation
                                JOINT LeftFinger01
                                {
                                    OFFSET   3.088130   0.000000   0.000000
                                    CHANNELS 3 Zrotation Xrotation Yrotation
                                    JOINT LeftFinger02
                                    {
                                        OFFSET   2.639450   0.000000   0.000000
                                        CHANNELS 3 Zrotation Xrotation Yrotation
                                        End Site
                                        {
                                            OFFSET   2.582190   0.000000   0.000000
                                        }
                                    }
                                }
                            }
                            JOINT LeftFinger1
                            {
                                OFFSET   8.364480   0.000000   3.252850
                                CHANNELS 3 Zrotation Xrotation Yrotation
                                JOINT LeftFinger11
                                {
                                    OFFSET   4.646920   0.000000   0.000000
                                    CHANNELS 3 Zrotation Xrotation Yrotation
                                    JOINT LeftFinger12
                                    {
                                        OFFSET   2.323460   0.000000   0.000000
                                        CHANNELS 3 Zrotation Xrotation Yrotation
                                        End Site
                                        {
                                            OFFSET   2.273050   0.000000   0.000000
                                        }
                                    }
                                }
                            }
                            JOINT LeftFinger2
                            {
                                OFFSET   8.364490   0.000016   1.078090
                                CHANNELS 3 Zrotation Xrotation Yrotation
                                JOINT LeftFinger21
                                {
                                    OFFSET   5.111620   0.000000   0.000000
                                    CHANNELS 3 Zrotation Xrotation Yrotation
                                    JOINT LeftFinger22
                                    {
                                        OFFSET   2.788150   0.000012   0.000000
                                        CHANNELS 3 Zrotation Xrotation Yrotation
                                        End Site
                                        {
                                            OFFSET   2.727660   0.000000   0.000000
                                        }
                                    }
                                }
                            }
                            JOINT LeftFinger3
                            {
                                OFFSET   7.899780   0.000014  -1.078090
                                CHANNELS 3 Zrotation Xrotation Yrotation
                                JOINT LeftFinger31
                                {
                                    OFFSET   4.646930   0.000000   0.000000
                                    CHANNELS 3 Zrotation Xrotation Yrotation
                                    JOINT LeftFinger32
                                    {
                                        OFFSET   2.323470   0.000000   0.000000
                                        CHANNELS 3 Zrotation Xrotation Yrotation
                                        End Site
                                        {
                                            OFFSET   2.273050   0.000000   0.000000
                                        }
                                    }
                                }
                            }
                            JOINT LeftFinger4
                            {
                                OFFSET   7.435090   0.000000  -3.252850
                                CHANNELS 3 Zrotation Xrotation Yrotation
                                JOINT LeftFinger41
                                {
                                    OFFSET   3.717550   0.000000   0.000000
                                    CHANNELS 3 Zrotation Xrotation Yrotation
                                    JOINT LeftFinger42
                                    {
                                        OFFSET   1.858770   0.000000   0.000000
                                        CHANNELS 3 Zrotation Xrotation Yrotation
                                        End Site
                                        {
                                            OFFSET   1.818440   0.000000   0.000000
                                        }
                                    }
                                }
                            }
                        }
                    }
                }
            }
            JOINT RightCollar
            {
                OFFSET  -3.911900  19.017000  -0.467063
                CHANNELS 3 Zrotation Xrotation Yrotation
                JOINT RightShoulder
                {
                    OFFSET -10.383700   0.000023   0.000000
                    CHANNELS 3 Zrotation Xrotation Yrotation
                    JOINT RightElbow
                    {
                        OFFSET -26.662100   0.001246   0.001011
                        CHANNELS 3 Zrotation Xrotation Yrotation
                        JOINT RightWrist
                        {
                            OFFSET -28.869000  -0.000026  -0.000078
                            CHANNELS 3 Zrotation Xrotation Yrotation
                            JOINT RightFinger0
                            {
                                OFFSET  -2.044660  -2.323490   3.252850
                                CHANNELS 3 Zrotation Xrotation Yrotation
                                JOINT RightFinger01
                                {
                                    OFFSET  -3.088130   0.000000   0.000000
                                    CHANNELS 3 Zrotation Xrotation Yrotation
                                    JOINT RightFinger02
                                    {
                                        OFFSET  -2.639460   0.000000   0.000000
                                        CHANNELS 3 Zrotation Xrotation Yrotation
                                        End Site
                                        {
                                            OFFSET  -2.582190   0.000000   0.000000
                                        }
                                    }
                                }
                            }
                            JOINT RightFinger1
                            {
                                OFFSET  -8.364480   0.000000   3.252850
                                CHANNELS 3 Zrotation Xrotation Yrotation
                                JOINT RightFinger11
                                {
                                    OFFSET  -4.646920   0.000000   0.000000
                                    CHANNELS 3 Zrotation Xrotation Yrotation
                                    JOINT RightFinger12
                                    {
                                        OFFSET  -2.323470   0.000000   0.000000
                                        CHANNELS 3 Zrotation Xrotation Yrotation
                                        End Site
                                        {
                                            OFFSET  -2.273050   0.000000   0.000000
                                        }
                                    }
                                }
                            }
                            JOINT RightFinger2
                            {
                                OFFSET  -8.364480   0.000000   1.078090
                                CHANNELS 3 Zrotation Xrotation Yrotation
                                JOINT RightFinger21
                                {
                                    OFFSET  -5.111620   0.000000   0.000000
                                    CHANNELS 3 Zrotation Xrotation Yrotation
                                    JOINT RightFinger22
                                    {
                                        OFFSET  -2.788160   0.000000   0.000000
                                        CHANNELS 3 Zrotation Xrotation Yrotation
                                        End Site
                                        {
                                            OFFSET  -2.727660   0.000000   0.000000
                                        }
                                    }
                                }
                            }
                            JOINT RightFinger3
                            {
                                OFFSET  -7.899780   0.000000  -1.078090
                                CHANNELS 3 Zrotation Xrotation Yrotation
                                JOINT RightFinger31
                                {
                                    OFFSET  -4.646930   0.000000   0.000000
                                    CHANNELS 3 Zrotation Xrotation Yrotation
                                    JOINT RightFinger32
                                    {
                                        OFFSET  -2.323470   0.000000   0.000000
                                        CHANNELS 3 Zrotation Xrotation Yrotation
                                        End Site
                                        {
                                            OFFSET  -2.273050   0.000000   0.000000
                                        }
                                    }
                                }
                            }
                            JOINT RightFinger4
                            {
                                OFFSET  -7.435090   0.000000  -3.252850
                                CHANNELS 3 Zrotation Xrotation Yrotation
                                JOINT RightFinger41
                                {
                                    OFFSET  -3.717550   0.000000   0.000000
                                    CHANNELS 3 Zrotation Xrotation Yrotation
                                    JOINT RightFinger42
                                    {
                                        OFFSET  -1.858760   0.000000   0.000000
                                        CHANNELS 3 Zrotation Xrotation Yrotation
                                        End Site
                                        {
                                            OFFSET  -1.818440   0.000000   0.000000
                                        }
                                    }
                                }
                            }
                        }
                    }
                }
            }
        }
    }
    JOINT LeftHip
    {
        OFFSET   9.783010   0.000000   0.000000
        CHANNELS 3 Zrotation Xrotation Yrotation
        JOINT LeftKnee
        {
            OFFSET   0.000073 -41.789100   0.001749
            CHANNELS 3 Zrotation Xrotation Yrotation
            JOINT LeftAnkle
            {
                OFFSET   0.000111 -41.133200  -0.000179
                CHANNELS 3 Zrotation Xrotation Yrotation
                JOINT LeftToe
                {
                    OFFSET   0.000000  -6.358960  14.674500
                    CHANNELS 3 Zrotation Xrotation Yrotation
                    End Site
                    {
                        OFFSET   0.000000   0.000000   3.913200
                    }
                }
            }
        }
    }
    JOINT RightHip
    {
        OFFSET  -9.783010   0.000000   0.000000
        CHANNELS 3 Zrotation Xrotation Yrotation
        JOINT RightKnee
        {
            OFFSET   0.000424 -41.789200   0.005205
            CHANNELS 3 Zrotation Xrotation Yrotation
            JOINT RightAnkle
            {
                OFFSET   0.000000 -41.133200  -0.000155
                CHANNELS 3 Zrotation Xrotation Yrotation
                JOINT RightToe
                {
                    OFFSET   0.000000  -6.358960  14.674500
                    CHANNELS 3 Zrotation Xrotation Yrotation
                    End Site
                    {
                        OFFSET   0.000000   0.000000   3.913200
                    }
                }
            }
        }
    }
}
MOTION
Frames: 4
Frame Time:   0.016667
  1.342610  89.590100  -0.612971  -2.467270  -7.422320  -1.411700   1.067110   4.067890   0.127832   2.133200   8.137470   0.180156   0.337025  -0.850076   0.009989   0.554094  -1.723410   2.306280  -3.977550  -0.953652   2.453310 -77.004300  14.159000  -0.405924  -0.924015  -3.719880 -15.879500  12.698400  -3.847260  -0.107080  38.682100  34.532500 -61.965200 -34.603300   0.000000   0.000135 -12.301700  -0.007742  -0.002069 -32.667100   5.496010  -8.495780 -27.061900  -0.002597  -0.004806 -18.943300   0.003278  -0.004091 -28.607300  -1.926800   3.528980 -38.296200  -0.002625  -0.004156 -25.505300  -0.004472  -0.001954 -28.519500  -1.921630   3.531800 -37.055200  -0.004714  -0.005241 -24.678700  -0.008681  -0.004381 -33.755700  -2.236340   3.341560 -50.731400  -0.011559  -0.004105 -33.787100   0.002891  -0.004099   7.634710   0.459307   6.585110  71.377100   4.915980  -7.983460  -1.240690  -4.961140  13.343200 -14.644800  -2.836990   1.717710 -34.203500  29.268100  59.105900  37.611400   0.000780  -0.001002  14.063000   0.003752  -0.000755  39.979500   7.800560   9.195120  33.225100   0.001079   0.000572  23.429000  -0.000865  -0.000000  35.670400   2.066720   2.875990  53.577700  -0.005884   0.007176  35.684700   0.002233   0.000447  40.195400   2.287090   2.704100  54.342400   0.012408   0.000842  37.351600   0.000329   0.000758  48.951500  -4.106400  -3.575460  73.619000  -0.000374  -0.000251  49.030300  -0.000331   0.013565   1.853880   9.917290   3.753520   1.033620   0.002706   3.003190  -1.150400  -3.018850   0.515710   0.000000   0.000000  -0.000000   2.257390   8.079580  -0.630659  -0.530758   2.431620  -4.927700  -0.216041  -4.140320  -1.660420   0.000000   0.000000  -0.000000
  1.338270  89.590100  -0.613012  -2.466850  -7.432100  -1.407230   1.067090   4.080990   0.130472   2.133060   8.163700   0.185191   0.345960  -0.855376   0.009984   0.568779  -1.734060   2.300460  -3.974080  -0.956323   2.453320 -76.993800  14.194300  -0.420110  -0.928670  -3.732440 -15.890600  12.698400  -3.855510  -0.102629  38.672100  34.529300 -61.968700 -34.612000   0.000000   0.000140 -12.306000  -0.007753  -0.002067 -32.679300   5.491900  -8.484850 -27.071300  -0.002590  -0.004802 -18.949900   0.003276  -0.004088 -28.606500  -1.933790   3.541620 -38.317900  -0.002626  -0.004157 -25.519800  -0.004475  -0.001952 -28.518700  -1.928610   3.544440 -37.075300  -0.004710  -0.005238 -24.692200  -0.008683  -0.004377 -33.764700  -2.244850   3.353240 -50.745400  -0.011557  -0.004102 -33.796400   0.002886  -0.004092   7.635520   0.446987   6.577060  71.394200   4.977000  -7.956310  -1.223160  -4.997570  13.338300 -14.645600  -2.829600   1.713170 -34.207000  29.282100  59.134200  37.607400   0.000785  -0.001002  14.059400   0.003759  -0.000765  39.978300   7.806040   9.201610  33.225100   0.001062   0.000588  23.428700  -0.000872  -0.000000  35.669300   2.075600   2.888690  53.577700  -0.005898   0.007179  35.684500   0.002213   0.000435  40.182300   2.296530   2.716400  54.342400   0.012410   0.000843  37.351400   0.000321   0.000751  48.941500  -4.106400  -3.575420  73.604300  -0.000394  -0.000283  49.020500  -0.000356   0.013584   1.853650   9.919500   3.753430   1.033490   0.018208   3.003170  -1.150650  -3.027560   0.511444   0.000000   0.000000  -0.000000   2.258650   8.091910  -0.630899  -0.525005   2.424790  -4.932080  -0.220763  -4.140050  -1.660530  -0.000000   0.000000   0.000000
  1.330860  89.590100  -0.613074  -2.466240  -7.450990  -1.400070   1.066930   4.104680   0.134712   2.132400   8.211140   0.193289   0.361488  -0.865989   0.009972   0.594311  -1.755470   2.289160  -3.966700  -0.962714   2.453320 -76.976900  14.259500  -0.443301  -0.937631  -3.758020 -15.910200  12.696300  -3.871050  -0.095073  38.661900  34.524000 -61.973200 -34.623900   0.000000   0.000151 -12.311900  -0.007764  -0.002063 -32.696700   5.484160  -8.468320 -27.084300  -0.002569  -0.004788 -18.959000   0.003272  -0.004077 -28.605200  -1.944280   3.560610 -38.348800  -0.002626  -0.004157 -25.540300  -0.004484  -0.001946 -28.517400  -1.939080   3.563440 -37.097000  -0.004699  -0.005227 -24.706600  -0.008689  -0.004367 -33.773200  -2.257520   3.370870 -50.759400  -0.011550  -0.004095 -33.805700   0.002872  -0.004073   7.633420   0.425507   6.559080  71.428200   5.082030  -7.897030  -1.197580  -5.039490  13.324900 -14.649200  -2.812600   1.704210 -34.214200  29.305800  59.177400  37.600700   0.000793  -0.001007  14.053300   0.003765  -0.000782  39.977600   7.817050   9.214210  33.225100   0.001014   0.000630  23.428300  -0.000893   0.000000  35.667600   2.089800   2.908810  53.577700  -0.005934   0.007187  35.684200   0.002163   0.000406  40.167400   2.311690   2.735840  54.342300   0.012413   0.000845  37.351200   0.000299   0.000731  48.927600  -4.106400  -3.575340  73.583800  -0.000444  -0.000363  49.006900  -0.000419   0.013634   1.852590   9.933530   3.753490   1.033350   0.033710   3.003140  -1.151690  -3.036270   0.504495  -0.000000   0.000000  -0.000000   2.262430   8.113390  -0.631153  -0.519082   2.417930  -4.940480  -0.228528  -4.139780  -1.660710  -0.000000   0.000000  -0.000000
  1.324480  89.590000  -0.613104  -2.465860  -7.470440  -1.394940   1.065280   4.126870   0.137976   2.128810   8.255590   0.199565   0.375322  -0.877972   0.009950   0.617074  -1.779770   2.277010  -3.957740  -0.971917   2.457010 -76.963700  14.322400  -0.459366  -0.945548  -3.786400 -15.928900  12.689600  -3.891920  -0.088578  38.654600  34.514100 -61.966100 -34.627000   0.000000   0.000163 -12.313500  -0.007765  -0.002061 -32.703800   5.473750  -8.456890 -27.088700  -0.002539  -0.004760 -18.962100   0.003272  -0.004059 -28.604200  -1.951270   3.573360 -38.361700  -0.002625  -0.004157 -25.548900  -0.004497  -0.001939 -28.518700  -1.945990   3.576230 -37.098000  -0.004678  -0.005208 -24.707200  -0.008698  -0.004351 -33.772000  -2.265640   3.382930 -50.758600  -0.011535  -0.004086 -33.805200   0.002849  -0.004043   7.620060   0.409290   6.533870  71.468500   5.166850  -7.822100  -1.182470  -5.046050  13.307400 -14.664400  -2.787190   1.693960 -34.224500  29.322900  59.197400  37.593500   0.000796  -0.001018  14.047100   0.003763  -0.000791  39.978700   7.830500   9.229320  33.227200   0.000933   0.000698  23.429500  -0.000929   0.000047  35.667700   2.100220   2.923160  53.580300  -0.005989   0.007199  35.685300   0.002084   0.000368  40.164900   2.322890   2.749600  54.342200   0.012419   0.000850  37.351200   0.000265   0.000700  48.921900  -4.105720  -3.575230  73.575500  -0.000520  -0.000486  49.001300  -0.000514   0.013712   1.850080   9.969630   3.754080   1.034530  -0.002567   3.003730  -1.154450  -3.017650   0.499278  -0.000000   0.000000   0.000000   2.269430   8.130400  -0.631112  -0.519859   2.418600  -4.949130  -0.234759  -4.139880  -1.660880  -0.000000   0.000000   0.000000
